<?xml version="1.0" encoding="utf-8"?>
<!-- Generator: Adobe Illustrator 16.0.0, SVG Export Plug-In . SVG Version: 6.00 Build 0)  -->
<!DOCTYPE svg PUBLIC "-//W3C//DTD SVG 1.1//EN" "http://www.w3.org/Graphics/SVG/1.1/DTD/svg11.dtd">
<svg version="1.1" id="Layer_1" xmlns="http://www.w3.org/2000/svg" xmlns:xlink="http://www.w3.org/1999/xlink" x="0px" y="0px"
	 width="512px" height="512px" viewBox="0 0 512 512" enable-background="new 0 0 512 512" xml:space="preserve">
<g>
	<path d="M54.305,187.379L14.6,203.787c-3.027,1.247-5.41,3.679-6.617,6.723c-1.225,3.044-1.145,6.45,0.193,9.436
		c27.602,61.236,66.301,117.481,114.693,165.551c48.055,48.394,104.307,87.099,165.566,114.686c2.979,1.344,6.393,1.425,9.438,0.218
		c3.042-1.215,5.458-3.608,6.715-6.636l16.406-39.708c-57.904-28.092-110.271-65.317-155.709-111.058
		C119.621,297.645,82.395,245.284,54.305,187.379z"/>
	<path d="M495.034,13.331c-3.461-3.461-8.665-4.5-13.188-2.632L84.828,174.766c26.357,53.853,61.148,102.578,103.777,144.914
		c42.412,42.693,91.141,77.489,144.999,103.858L497.66,26.505C499.527,21.988,498.48,16.786,495.034,13.331z M319.402,97.637
		c7.908-4.485,17.988-1.7,22.482,6.24c4.461,7.916,1.689,17.94-6.201,22.44c-4.363,2.52-41.984,25.59-24.848,62.146
		c3.865,8.245,0.322,18.061-7.924,21.926c-2.271,1.062-4.654,1.562-6.989,1.562c-6.2,0.008-12.142-3.511-14.944-9.494
		C256.613,150.49,295.457,111.173,319.402,97.637z M234.486,252.374c-14.092,14.098-36.959,14.083-51.051-0.017
		c-14.091-14.1-14.091-36.936,0-51.042c14.092-14.1,36.943-14.1,51.051,0.008C248.577,215.421,248.577,238.266,234.486,252.374z
		 M347.554,278.067c-1.449,2.495-15.251,25.083-52.032,47.547c-2.69,1.634-5.654,2.415-8.584,2.415
		c-5.555,0-10.982-2.81-14.092-7.899c-4.75-7.769-2.287-17.915,5.476-22.666c29.681-18.117,40.695-35.92,40.791-36.096
		c4.72-7.748,14.769-10.332,22.563-5.701C349.453,260.287,352.11,270.241,347.554,278.067z M430.924,106.889l-17.747,31.499
		c-1.579,2.795-4.202,4.848-7.294,5.709c-3.092,0.862-6.394,0.468-9.197-1.11l-11.852-6.692c-2.803-1.578-4.863-4.195-5.717-7.287
		c-0.869-3.092-0.467-6.402,1.111-9.195L397.99,88.32c3.287-5.821,10.66-7.882,16.475-4.597l11.869,6.684
		C432.146,93.691,434.209,101.067,430.924,106.889z"/>
</g>
</svg>
